<svg id="svg" version="1.1" xmlns="http://www.w3.org/2000/svg" xmlns:xlink="http://www.w3.org/1999/xlink" width="400" height="252.84974093264248" viewBox="0, 0, 400,252.84974093264248"><g id="svgg"><path id="path0" d="M0.000 126.502 L 0.000 253.004 200.000 253.004 L 400.000 253.004 400.000 126.502 L 400.000 0.000 394.307 0.000 C 391.176 0.000,388.615 0.078,388.615 0.173 C 388.615 0.269,388.824 0.582,389.081 0.869 C 389.574 1.423,390.053 2.925,390.759 6.144 C 391.318 8.686,391.657 9.331,393.424 11.221 C 396.342 14.340,396.521 15.659,394.327 17.846 C 392.753 19.415,389.644 21.756,388.110 22.526 C 386.801 23.183,386.431 23.605,386.229 24.674 C 386.053 25.599,384.932 27.241,383.002 29.401 C 380.231 32.503,379.530 34.625,379.329 40.512 C 379.138 46.126,379.146 46.159,381.173 47.836 C 383.181 49.497,383.824 49.593,384.135 48.280 C 384.402 47.151,384.988 46.862,385.657 47.530 C 387.186 49.060,384.310 52.046,377.048 56.468 C 371.831 59.645,369.133 62.079,369.133 63.606 C 369.133 64.120,368.995 64.143,371.456 63.226 C 375.849 61.589,375.459 61.671,375.459 62.382 C 375.459 63.425,371.415 67.046,370.251 67.046 C 369.810 67.046,366.363 68.927,366.246 69.231 C 366.165 69.441,366.229 69.856,366.388 70.152 C 368.104 73.358,367.346 80.342,365.103 82.000 C 363.984 82.828,364.115 83.256,366.120 85.317 C 368.615 87.881,368.880 88.581,368.880 92.600 C 368.880 97.107,368.028 100.190,366.434 101.443 C 365.479 102.195,365.245 101.665,365.723 99.830 C 366.439 97.081,365.996 95.926,363.383 93.733 C 359.953 90.854,360.075 91.001,359.555 89.124 C 359.286 88.153,358.791 86.916,358.455 86.374 C 357.720 85.189,356.731 83.099,356.493 82.226 C 356.258 81.366,355.934 81.500,355.547 82.619 C 355.089 83.942,355.630 85.673,357.649 89.339 C 358.538 90.955,359.266 92.404,359.266 92.561 C 359.266 92.717,359.608 93.873,360.025 95.130 C 360.443 96.386,360.784 97.525,360.784 97.660 C 360.784 97.794,361.343 99.074,362.025 100.502 C 364.818 106.350,365.091 107.113,365.531 110.309 L 365.722 111.699 366.859 111.953 C 369.911 112.636,369.961 113.794,367.110 117.790 C 365.090 120.622,365.033 120.834,366.161 121.306 C 367.313 121.789,367.390 121.921,366.980 122.712 C 366.457 123.723,365.039 124.753,362.302 126.109 C 358.855 127.816,357.242 129.453,357.242 131.243 C 357.242 132.317,356.213 134.147,355.284 134.723 C 351.225 137.240,351.227 137.238,349.897 141.303 C 348.828 144.570,348.232 145.337,344.652 148.056 C 334.115 156.056,333.535 171.231,343.382 181.301 C 345.831 183.807,346.869 185.252,346.869 186.160 C 346.869 186.411,346.960 186.724,347.070 186.856 C 347.181 186.989,347.481 187.780,347.738 188.615 C 347.995 189.450,349.145 192.410,350.293 195.193 C 351.442 197.976,352.441 200.538,352.515 200.886 C 352.588 201.233,352.818 202.201,353.026 203.036 C 353.842 206.320,353.730 209.415,352.705 211.891 C 352.590 212.170,352.295 212.878,352.051 213.466 C 350.428 217.361,348.139 217.278,343.833 213.168 C 342.789 212.171,341.218 210.858,340.341 210.250 C 338.252 208.800,336.935 206.998,334.750 202.601 C 333.583 200.254,332.252 198.060,330.950 196.339 C 328.315 192.855,328.107 192.186,328.314 187.867 C 328.555 182.832,328.073 182.142,322.328 179.311 C 319.185 177.762,317.964 177.797,315.531 179.507 C 310.911 182.753,310.287 182.758,305.594 179.575 C 301.505 176.802,300.516 176.659,296.488 178.261 C 293.512 179.444,292.415 179.563,290.830 178.879 L 289.567 178.333 288.998 178.996 C 288.324 179.779,287.224 180.266,285.600 180.500 C 284.852 180.608,283.671 181.125,282.373 181.913 C 280.033 183.334,279.269 183.573,276.281 183.816 C 273.819 184.017,273.609 184.091,274.038 184.608 C 274.955 185.713,276.150 185.984,278.385 185.594 C 282.368 184.899,282.821 185.920,280.162 189.600 C 279.042 191.150,278.993 192.007,280.022 192.047 C 281.559 192.106,284.938 193.797,285.357 194.718 C 286.633 197.517,282.747 197.465,278.245 194.621 C 276.200 193.329,275.908 193.468,276.568 195.421 C 277.264 197.484,277.004 197.531,274.217 195.840 C 272.875 195.025,271.680 194.450,271.562 194.560 C 271.002 195.086,267.106 196.868,266.937 196.676 C 266.832 196.556,266.608 195.206,266.441 193.675 C 266.009 189.731,265.874 188.985,265.623 189.140 C 265.501 189.216,265.400 189.811,265.398 190.464 C 265.390 193.287,265.455 193.278,259.583 191.251 C 257.147 190.411,254.090 189.376,252.789 188.951 L 250.424 188.178 246.085 188.861 C 240.986 189.663,239.584 190.008,239.335 190.517 C 239.234 190.723,238.941 191.575,238.683 192.410 C 237.659 195.728,236.311 196.892,231.657 198.476 C 222.988 201.426,220.754 206.849,224.098 216.825 C 225.774 221.827,225.372 222.771,221.561 222.769 C 216.515 222.767,212.731 220.044,205.918 211.512 C 204.307 209.494,202.267 207.067,201.384 206.118 C 198.895 203.441,197.950 202.042,196.143 198.355 C 191.670 189.230,188.788 188.016,182.037 192.415 C 181.202 192.959,180.234 193.557,179.886 193.745 C 179.538 193.933,178.969 194.357,178.621 194.687 C 176.747 196.466,175.567 196.289,172.371 193.747 C 167.432 189.819,161.923 183.275,158.892 177.736 C 157.463 175.124,155.840 172.820,154.954 172.144 C 152.899 170.577,145.351 170.758,143.469 172.420 C 141.139 174.478,141.777 174.378,131.226 174.352 C 120.295 174.326,120.196 174.309,115.876 171.694 C 114.972 171.146,111.442 169.140,108.033 167.235 C 104.624 165.331,101.265 163.453,100.569 163.062 C 98.142 161.698,96.420 160.399,95.339 159.117 C 93.658 157.124,90.930 156.365,85.426 156.359 C 80.417 156.354,78.663 155.234,77.299 151.170 C 75.700 146.406,74.776 145.392,67.841 140.793 C 59.658 135.367,58.650 134.084,58.745 129.222 C 58.804 126.207,58.573 124.832,57.674 122.834 C 57.549 122.555,57.035 121.417,56.533 120.304 C 54.836 116.546,53.956 113.575,54.257 112.625 C 54.516 111.810,53.887 109.844,52.456 106.987 C 50.560 103.206,50.591 101.979,52.619 100.573 C 53.923 99.670,53.653 99.330,51.685 99.398 C 48.239 99.516,46.617 96.122,46.077 87.666 C 45.276 75.118,45.187 75.895,48.431 67.046 C 49.171 65.028,49.911 62.979,50.076 62.492 C 50.241 62.005,50.482 59.842,50.612 57.685 C 51.098 49.586,51.207 49.145,53.770 45.002 C 56.541 40.523,61.380 27.395,62.338 21.758 C 62.420 21.271,62.598 20.361,62.732 19.734 C 63.099 18.023,63.038 14.017,62.614 12.018 C 61.153 5.118,62.858 3.048,67.890 5.611 C 72.766 8.094,73.371 8.734,73.371 11.408 C 73.371 12.560,73.480 13.053,73.782 13.274 C 74.152 13.545,74.116 13.738,73.400 15.284 C 72.503 17.222,72.565 17.663,73.645 17.026 C 75.527 15.913,77.086 12.615,77.326 9.235 C 77.523 6.459,77.574 6.325,78.437 6.325 C 79.093 6.325,83.800 7.470,87.287 8.477 C 88.679 8.880,94.327 10.548,95.889 11.018 C 104.050 13.475,109.589 14.702,116.382 15.560 C 118.121 15.779,120.228 16.070,121.063 16.206 C 122.652 16.466,126.064 16.803,131.183 17.207 C 132.853 17.339,135.130 17.559,136.243 17.695 C 142.838 18.505,176.593 18.771,206.705 18.249 C 224.864 17.935,225.384 17.843,228.737 14.382 C 230.191 12.881,230.534 12.650,231.314 12.650 C 232.333 12.650,233.521 13.781,233.526 14.757 C 233.530 15.432,234.385 18.204,234.890 19.181 C 235.603 20.560,235.816 20.619,240.078 20.629 C 243.245 20.637,244.172 20.721,244.782 21.054 C 248.862 23.286,251.608 23.977,257.325 24.212 C 260.865 24.357,261.101 24.398,261.101 24.867 C 261.101 26.197,259.544 27.674,255.860 29.840 C 253.453 31.255,251.890 32.660,251.213 34.016 C 250.128 36.189,250.777 36.679,255.953 37.588 C 258.613 38.055,258.189 38.188,262.008 35.695 C 263.411 34.779,264.777 33.890,265.044 33.720 C 265.310 33.550,266.349 32.886,267.353 32.245 C 269.329 30.983,269.787 30.954,269.454 32.116 C 269.196 33.017,269.307 33.144,270.362 33.144 C 270.818 33.144,272.194 33.623,273.420 34.208 C 276.627 35.740,277.623 35.677,284.883 33.484 C 289.908 31.965,293.509 33.513,294.479 37.608 C 294.833 39.101,294.559 39.841,293.557 40.092 C 293.236 40.173,292.611 40.459,292.170 40.728 L 291.366 41.216 292.020 41.465 C 292.380 41.602,293.569 42.020,294.661 42.395 C 299.523 44.061,301.070 45.717,301.275 49.471 L 301.386 51.505 299.966 54.225 C 297.815 58.344,298.086 58.947,300.949 56.420 C 304.745 53.069,306.679 53.394,308.249 57.646 C 310.121 62.716,310.114 65.107,308.217 68.587 C 303.159 77.866,315.183 75.283,324.984 64.985 C 328.779 60.998,329.489 59.078,328.149 56.424 C 326.657 53.468,328.322 52.217,334.722 51.484 C 341.605 50.696,343.991 48.333,341.957 44.317 C 340.754 41.945,341.224 40.225,344.209 36.067 C 348.088 30.665,350.258 29.296,359.140 26.652 C 369.546 23.554,372.667 20.741,373.692 13.536 C 373.810 12.701,374.026 11.505,374.171 10.879 C 374.316 10.253,374.437 9.332,374.440 8.832 C 374.449 7.618,375.281 4.424,376.099 2.469 C 376.464 1.598,376.823 0.686,376.899 0.443 C 377.029 0.021,367.942 0.000,188.518 0.000 L 0.000 0.000 0.000 126.502 M282.665 42.505 C 280.145 43.767,277.341 46.292,276.430 48.121 C 275.709 49.567,275.726 49.768,276.532 49.337 C 277.934 48.586,278.164 50.508,277.382 56.428 C 276.742 61.262,276.807 69.864,277.500 72.304 C 279.464 79.211,283.689 80.598,285.388 74.892 C 286.161 72.298,285.922 70.551,284.227 66.378 C 283.727 65.145,283.103 63.611,282.842 62.969 C 281.612 59.941,281.763 55.664,283.267 50.921 C 284.163 48.097,286.148 46.200,286.866 47.482 C 287.160 48.008,287.728 47.028,288.188 45.204 C 289.115 41.522,286.845 40.413,282.665 42.505 M28.878 127.005 C 30.180 127.281,31.701 127.620,32.258 127.758 C 32.815 127.896,35.653 128.011,38.565 128.014 C 43.879 128.020,44.592 128.111,46.736 129.055 C 48.014 129.617,49.178 131.120,49.740 132.932 C 50.510 135.411,50.875 136.758,51.084 137.887 C 51.200 138.514,51.577 140.108,51.923 141.429 C 52.269 142.751,52.866 145.199,53.251 146.869 C 53.635 148.539,54.094 150.417,54.271 151.044 C 54.448 151.670,54.787 152.865,55.024 153.700 C 57.855 163.686,62.404 168.907,66.706 167.109 C 68.363 166.417,69.624 167.111,71.236 169.601 C 72.356 171.330,73.792 172.474,75.109 172.684 C 75.614 172.765,76.275 172.882,76.578 172.943 C 77.443 173.119,78.631 174.260,78.813 175.090 C 78.905 175.506,79.368 176.259,79.844 176.763 L 80.708 177.679 82.603 177.507 C 85.719 177.225,86.036 177.782,84.151 180.235 C 81.852 183.228,78.164 182.227,72.396 177.044 C 69.226 174.196,66.159 172.172,62.998 170.844 C 59.625 169.427,58.855 169.359,52.498 169.919 C 51.137 170.039,50.824 169.969,49.464 169.242 C 46.591 167.704,46.096 167.771,44.517 169.909 C 43.096 171.831,42.124 172.712,40.607 173.448 C 38.177 174.628,37.602 174.182,37.961 171.398 C 38.348 168.390,38.286 167.489,37.692 167.489 C 36.352 167.489,33.709 171.210,33.162 173.867 C 31.833 180.322,30.179 182.778,24.661 186.485 C 20.230 189.462,13.041 192.610,9.309 193.207 C 8.115 193.398,8.068 193.053,9.103 191.685 C 11.687 188.272,13.433 186.769,17.902 184.114 C 21.065 182.235,22.353 181.175,23.316 179.657 C 24.509 177.775,24.394 177.609,21.892 177.609 C 18.070 177.609,16.324 176.393,15.823 173.382 C 15.711 172.712,15.489 172.272,15.223 172.194 C 14.991 172.127,14.159 171.890,13.375 171.668 C 6.733 169.789,7.870 160.784,15.167 157.472 C 19.804 155.368,19.335 153.083,14.370 153.591 C 9.713 154.068,7.593 152.810,7.591 149.571 C 7.588 145.434,13.482 142.304,15.207 145.527 C 15.553 146.174,16.459 146.093,17.270 145.341 C 18.571 144.134,18.224 143.549,15.161 141.783 C 11.276 139.542,10.836 137.733,13.760 136.020 C 14.374 135.660,15.481 134.595,16.219 133.654 C 21.410 127.031,23.595 125.883,28.878 127.005 M111.585 201.708 C 114.036 202.944,114.138 205.371,111.779 206.315 C 110.474 206.837,109.142 206.464,107.909 205.232 C 105.412 202.734,108.241 200.022,111.585 201.708 M126.340 208.459 C 128.144 209.281,131.056 212.939,131.056 214.383 C 131.056 215.310,125.766 215.115,124.030 214.124 C 119.790 211.706,121.933 206.452,126.340 208.459 M143.059 216.099 C 143.902 216.256,144.873 216.464,145.217 216.560 L 145.843 216.736 145.183 217.395 C 143.445 219.133,137.128 218.885,137.128 217.080 C 137.128 215.906,139.724 215.477,143.059 216.099 M150.285 218.957 C 151.815 219.334,155.436 220.645,156.580 221.237 C 159.178 222.581,156.607 225.707,152.598 226.079 C 150.787 226.246,150.207 225.941,148.984 224.177 C 147.468 221.988,146.521 221.703,144.339 222.776 C 142.200 223.828,140.164 223.091,140.164 221.264 C 140.164 220.382,140.589 220.266,142.824 220.541 L 144.715 220.774 145.495 219.969 C 146.762 218.662,148.014 218.397,150.285 218.957 M161.579 230.686 C 162.116 230.934,163.187 231.549,163.959 232.052 C 164.730 232.555,166.723 233.675,168.386 234.540 C 174.229 237.578,176.055 239.445,176.124 242.449 C 176.190 245.279,175.056 245.939,167.513 247.465 C 165.794 247.813,164.771 248.727,164.565 250.101 C 164.136 252.960,160.640 252.757,158.878 249.770 C 158.324 248.831,158.324 248.843,158.769 245.541 C 158.932 244.328,158.892 244.212,157.806 242.736 C 155.733 239.921,155.726 239.816,157.446 236.939 C 158.345 235.435,158.512 234.938,158.549 233.650 C 158.574 232.815,158.603 231.984,158.614 231.804 C 158.689 230.585,160.161 230.030,161.579 230.686 " stroke="none" fill="#fafbfb" fill-rule="evenodd"></path><path id="path1" d="M376.899 0.443 C 376.823 0.686,376.464 1.598,376.099 2.469 C 375.281 4.424,374.449 7.618,374.440 8.832 C 374.437 9.332,374.316 10.253,374.171 10.879 C 374.026 11.505,373.810 12.701,373.692 13.536 C 372.667 20.741,369.546 23.554,359.140 26.652 C 350.258 29.296,348.088 30.665,344.209 36.067 C 341.224 40.225,340.754 41.945,341.957 44.317 C 343.991 48.333,341.605 50.696,334.722 51.484 C 328.322 52.217,326.657 53.468,328.149 56.424 C 329.489 59.078,328.779 60.998,324.984 64.985 C 315.183 75.283,303.159 77.866,308.217 68.587 C 310.114 65.107,310.121 62.716,308.249 57.646 C 306.679 53.394,304.745 53.069,300.949 56.420 C 298.086 58.947,297.815 58.344,299.966 54.225 L 301.386 51.505 301.275 49.471 C 301.070 45.717,299.523 44.061,294.661 42.395 C 293.569 42.020,292.380 41.602,292.020 41.465 L 291.366 41.216 292.170 40.728 C 292.611 40.459,293.236 40.173,293.557 40.092 C 294.559 39.841,294.833 39.101,294.479 37.608 C 293.509 33.513,289.908 31.965,284.883 33.484 C 277.623 35.677,276.627 35.740,273.420 34.208 C 272.194 33.623,270.818 33.144,270.362 33.144 C 269.307 33.144,269.196 33.017,269.454 32.116 C 269.787 30.954,269.329 30.983,267.353 32.245 C 266.349 32.886,265.310 33.550,265.044 33.720 C 264.777 33.890,263.411 34.779,262.008 35.695 C 258.189 38.188,258.613 38.055,255.953 37.588 C 250.777 36.679,250.128 36.189,251.213 34.016 C 251.890 32.660,253.453 31.255,255.860 29.840 C 259.544 27.674,261.101 26.197,261.101 24.867 C 261.101 24.398,260.865 24.357,257.325 24.212 C 251.608 23.977,248.862 23.286,244.782 21.054 C 244.172 20.721,243.245 20.637,240.078 20.629 C 235.816 20.619,235.603 20.560,234.890 19.181 C 234.385 18.204,233.530 15.432,233.526 14.757 C 233.521 13.781,232.333 12.650,231.314 12.650 C 230.534 12.650,230.191 12.881,228.737 14.382 C 225.384 17.843,224.864 17.935,206.705 18.249 C 176.593 18.771,142.838 18.505,136.243 17.695 C 135.130 17.559,132.853 17.339,131.183 17.207 C 126.064 16.803,122.652 16.466,121.063 16.206 C 120.228 16.070,118.121 15.779,116.382 15.560 C 109.589 14.702,104.050 13.475,95.889 11.018 C 80.856 6.492,77.788 5.802,77.567 6.894 C 77.503 7.207,77.395 8.261,77.326 9.235 C 77.086 12.615,75.527 15.913,73.645 17.026 C 72.565 17.663,72.503 17.222,73.400 15.284 C 74.116 13.738,74.152 13.545,73.782 13.274 C 73.480 13.053,73.371 12.560,73.371 11.408 C 73.371 8.734,72.766 8.094,67.890 5.611 C 62.858 3.048,61.153 5.118,62.614 12.018 C 63.038 14.017,63.099 18.023,62.732 19.734 C 62.598 20.361,62.420 21.271,62.338 21.758 C 61.380 27.395,56.541 40.523,53.770 45.002 C 51.207 49.145,51.098 49.586,50.612 57.685 C 50.482 59.842,50.241 62.005,50.076 62.492 C 49.911 62.979,49.171 65.028,48.431 67.046 C 45.187 75.895,45.276 75.118,46.077 87.666 C 46.617 96.122,48.239 99.516,51.685 99.398 C 53.653 99.330,53.923 99.670,52.619 100.573 C 50.591 101.979,50.560 103.206,52.456 106.987 C 53.887 109.844,54.516 111.810,54.257 112.625 C 53.956 113.575,54.836 116.546,56.533 120.304 C 57.035 121.417,57.549 122.555,57.674 122.834 C 58.573 124.832,58.804 126.207,58.745 129.222 C 58.650 134.084,59.658 135.367,67.841 140.793 C 74.776 145.392,75.700 146.406,77.299 151.170 C 78.663 155.234,80.417 156.354,85.426 156.359 C 90.930 156.365,93.658 157.124,95.339 159.117 C 96.420 160.399,98.142 161.698,100.569 163.062 C 101.265 163.453,104.624 165.331,108.033 167.235 C 111.442 169.140,114.972 171.146,115.876 171.694 C 120.196 174.309,120.295 174.326,131.226 174.352 C 141.777 174.378,141.139 174.478,143.469 172.420 C 145.351 170.758,152.899 170.577,154.954 172.144 C 155.840 172.820,157.463 175.124,158.892 177.736 C 161.923 183.275,167.432 189.819,172.371 193.747 C 175.567 196.289,176.747 196.466,178.621 194.687 C 178.969 194.357,179.538 193.933,179.886 193.745 C 180.234 193.557,181.202 192.959,182.037 192.415 C 188.788 188.016,191.670 189.230,196.143 198.355 C 197.950 202.042,198.895 203.441,201.384 206.118 C 202.267 207.067,204.307 209.494,205.918 211.512 C 212.731 220.044,216.515 222.767,221.561 222.769 C 225.372 222.771,225.774 221.827,224.098 216.825 C 220.754 206.849,222.988 201.426,231.657 198.476 C 236.311 196.892,237.659 195.728,238.683 192.410 C 238.941 191.575,239.234 190.723,239.335 190.517 C 239.584 190.008,240.986 189.663,246.085 188.861 L 250.424 188.178 252.789 188.951 C 254.090 189.376,257.147 190.411,259.583 191.251 C 265.455 193.278,265.390 193.287,265.398 190.464 C 265.400 189.811,265.501 189.216,265.623 189.140 C 265.874 188.985,266.009 189.731,266.441 193.675 C 266.608 195.206,266.832 196.556,266.937 196.676 C 267.106 196.868,271.002 195.086,271.562 194.560 C 271.680 194.450,272.875 195.025,274.217 195.840 C 277.004 197.531,277.264 197.484,276.568 195.421 C 275.908 193.468,276.200 193.329,278.245 194.621 C 282.747 197.465,286.633 197.517,285.357 194.718 C 284.938 193.797,281.559 192.106,280.022 192.047 C 278.993 192.007,279.042 191.150,280.162 189.600 C 282.821 185.920,282.368 184.899,278.385 185.594 C 276.150 185.984,274.955 185.713,274.038 184.608 C 273.609 184.091,273.819 184.017,276.281 183.816 C 279.269 183.573,280.033 183.334,282.373 181.913 C 283.671 181.125,284.852 180.608,285.600 180.500 C 287.224 180.266,288.324 179.779,288.998 178.996 L 289.567 178.333 290.830 178.879 C 292.415 179.563,293.512 179.444,296.488 178.261 C 300.516 176.659,301.505 176.802,305.594 179.575 C 310.287 182.758,310.911 182.753,315.531 179.507 C 317.964 177.797,319.185 177.762,322.328 179.311 C 328.073 182.142,328.555 182.832,328.314 187.867 C 328.107 192.186,328.315 192.855,330.950 196.339 C 332.252 198.060,333.583 200.254,334.750 202.601 C 336.935 206.998,338.252 208.800,340.341 210.250 C 341.218 210.858,342.789 212.171,343.833 213.168 C 348.139 217.278,350.428 217.361,352.051 213.466 C 352.295 212.878,352.590 212.170,352.705 211.891 C 353.730 209.415,353.842 206.320,353.026 203.036 C 352.818 202.201,352.588 201.233,352.515 200.886 C 352.441 200.538,351.442 197.976,350.293 195.193 C 349.145 192.410,347.995 189.450,347.738 188.615 C 347.481 187.780,347.181 186.989,347.070 186.856 C 346.960 186.724,346.869 186.411,346.869 186.160 C 346.869 185.252,345.831 183.807,343.382 181.301 C 333.535 171.231,334.115 156.056,344.652 148.056 C 348.232 145.337,348.828 144.570,349.897 141.303 C 351.227 137.238,351.225 137.240,355.284 134.723 C 356.213 134.147,357.242 132.317,357.242 131.243 C 357.242 129.453,358.855 127.816,362.302 126.109 C 365.039 124.753,366.457 123.723,366.980 122.712 C 367.390 121.921,367.313 121.789,366.161 121.306 C 365.033 120.834,365.090 120.622,367.110 117.790 C 369.961 113.794,369.911 112.636,366.859 111.953 L 365.722 111.699 365.531 110.309 C 365.091 107.113,364.818 106.350,362.025 100.502 C 361.343 99.074,360.784 97.794,360.784 97.660 C 360.784 97.525,360.443 96.386,360.025 95.130 C 359.608 93.873,359.266 92.717,359.266 92.561 C 359.266 92.404,358.538 90.955,357.649 89.339 C 355.605 85.627,355.087 83.947,355.562 82.575 C 355.955 81.441,356.248 81.331,356.493 82.226 C 356.731 83.099,357.720 85.189,358.455 86.374 C 358.791 86.916,359.286 88.153,359.555 89.124 C 360.075 91.001,359.953 90.854,363.383 93.733 C 365.996 95.926,366.439 97.081,365.723 99.830 C 365.245 101.665,365.479 102.195,366.434 101.443 C 368.028 100.190,368.880 97.107,368.880 92.600 C 368.880 88.581,368.615 87.881,366.120 85.317 C 364.115 83.256,363.984 82.828,365.103 82.000 C 367.346 80.342,368.104 73.358,366.388 70.152 C 366.229 69.856,366.165 69.441,366.246 69.231 C 366.363 68.927,369.810 67.046,370.251 67.046 C 371.419 67.046,375.459 63.425,375.459 62.378 L 375.459 61.746 373.371 62.524 C 368.771 64.238,369.133 64.146,369.133 63.606 C 369.133 62.079,371.831 59.645,377.048 56.468 C 384.310 52.046,387.186 49.060,385.657 47.530 C 384.988 46.862,384.402 47.151,384.135 48.280 C 383.824 49.593,383.181 49.497,381.173 47.836 C 379.146 46.159,379.138 46.126,379.329 40.512 C 379.530 34.625,380.231 32.503,383.002 29.401 C 384.932 27.241,386.053 25.599,386.229 24.674 C 386.431 23.605,386.801 23.183,388.110 22.526 C 389.644 21.756,392.753 19.415,394.327 17.846 C 396.521 15.659,396.342 14.340,393.424 11.221 C 391.657 9.331,391.318 8.686,390.759 6.144 C 390.062 2.968,389.569 1.437,389.011 0.710 L 388.488 0.028 382.762 0.014 C 377.522 0.001,377.024 0.038,376.899 0.443 M287.765 41.880 C 288.629 42.745,288.505 45.193,287.497 47.140 C 287.157 47.799,287.069 47.846,286.866 47.482 C 286.148 46.200,284.163 48.097,283.267 50.921 C 281.763 55.664,281.612 59.941,282.842 62.969 C 283.103 63.611,283.727 65.145,284.227 66.378 C 285.922 70.551,286.161 72.298,285.388 74.892 C 283.689 80.598,279.464 79.211,277.500 72.304 C 276.807 69.864,276.742 61.262,277.382 56.428 C 278.164 50.508,277.934 48.586,276.532 49.337 C 275.726 49.768,275.709 49.567,276.430 48.121 C 278.397 44.174,285.918 40.033,287.765 41.880 M24.055 126.920 C 21.468 127.622,19.871 128.994,16.219 133.654 C 15.481 134.595,14.374 135.660,13.760 136.020 C 10.836 137.733,11.276 139.542,15.161 141.783 C 18.224 143.549,18.571 144.134,17.270 145.341 C 16.459 146.093,15.553 146.174,15.207 145.527 C 13.482 142.304,7.588 145.434,7.591 149.571 C 7.593 152.810,9.713 154.068,14.370 153.591 C 19.335 153.083,19.804 155.368,15.167 157.472 C 7.870 160.784,6.733 169.789,13.375 171.668 C 14.159 171.890,14.991 172.127,15.223 172.194 C 15.489 172.272,15.711 172.712,15.823 173.382 C 16.324 176.393,18.070 177.609,21.892 177.609 C 24.394 177.609,24.509 177.775,23.316 179.657 C 22.353 181.175,21.065 182.235,17.902 184.114 C 13.433 186.769,11.687 188.272,9.103 191.685 C 8.068 193.053,8.115 193.398,9.309 193.207 C 13.041 192.610,20.230 189.462,24.661 186.485 C 30.179 182.778,31.833 180.322,33.162 173.867 C 33.709 171.210,36.352 167.489,37.692 167.489 C 38.286 167.489,38.348 168.390,37.961 171.398 C 37.602 174.182,38.177 174.628,40.607 173.448 C 42.124 172.712,43.096 171.831,44.517 169.909 C 46.096 167.771,46.591 167.704,49.464 169.242 C 50.824 169.969,51.137 170.039,52.498 169.919 C 58.855 169.359,59.625 169.427,62.998 170.844 C 66.159 172.172,69.226 174.196,72.396 177.044 C 78.164 182.227,81.852 183.228,84.151 180.235 C 86.036 177.782,85.719 177.225,82.603 177.507 L 80.708 177.679 79.844 176.763 C 79.368 176.259,78.905 175.506,78.813 175.090 C 78.631 174.260,77.443 173.119,76.578 172.943 C 76.275 172.882,75.614 172.765,75.109 172.684 C 73.792 172.474,72.356 171.330,71.236 169.601 C 69.624 167.111,68.363 166.417,66.706 167.109 C 62.404 168.907,57.855 163.686,55.024 153.700 C 54.787 152.865,54.448 151.670,54.271 151.044 C 54.094 150.417,53.635 148.539,53.251 146.869 C 52.866 145.199,52.269 142.751,51.923 141.429 C 51.577 140.108,51.200 138.514,51.084 137.887 C 49.920 131.587,48.529 129.478,44.764 128.302 C 44.223 128.134,41.733 128.018,38.565 128.014 C 35.653 128.011,32.815 127.896,32.258 127.758 C 27.121 126.488,26.052 126.379,24.055 126.920 M108.026 201.567 C 106.646 202.511,106.601 203.924,107.909 205.232 C 109.722 207.045,112.217 206.954,113.249 205.038 C 114.454 202.801,110.278 200.025,108.026 201.567 M123.466 208.148 C 120.933 209.070,121.260 212.544,124.030 214.124 C 125.766 215.115,131.056 215.310,131.056 214.383 C 131.056 211.520,125.881 207.269,123.466 208.148 M137.698 216.236 C 136.254 217.244,137.533 218.333,140.385 218.525 C 142.692 218.680,144.270 218.309,145.183 217.395 L 145.843 216.736 145.217 216.560 C 142.328 215.749,138.625 215.589,137.698 216.236 M147.078 218.906 C 146.637 219.048,145.925 219.526,145.495 219.969 L 144.715 220.774 142.824 220.541 C 140.589 220.266,140.164 220.382,140.164 221.264 C 140.164 223.091,142.200 223.828,144.339 222.776 C 146.521 221.703,147.468 221.988,148.984 224.177 C 150.207 225.941,150.787 226.246,152.598 226.079 C 156.607 225.707,159.178 222.581,156.580 221.237 C 153.104 219.439,148.744 218.370,147.078 218.906 M159.255 230.855 C 158.913 231.197,158.625 231.624,158.614 231.804 C 158.603 231.984,158.574 232.815,158.549 233.650 C 158.512 234.938,158.345 235.435,157.446 236.939 C 155.726 239.816,155.733 239.921,157.806 242.736 C 158.892 244.212,158.932 244.328,158.769 245.541 C 158.324 248.843,158.324 248.831,158.878 249.770 C 160.640 252.757,164.136 252.960,164.565 250.101 C 164.771 248.727,165.794 247.813,167.513 247.465 C 175.056 245.939,176.190 245.279,176.124 242.449 C 176.055 239.445,174.229 237.578,168.386 234.540 C 166.723 233.675,164.730 232.555,163.959 232.052 C 161.028 230.142,160.183 229.927,159.255 230.855 " stroke="none" fill="#0483fb" fill-rule="evenodd"></path></g></svg>