<svg id="svg" version="1.1" xmlns="http://www.w3.org/2000/svg" xmlns:xlink="http://www.w3.org/1999/xlink" width="400" height="383.00132802124836" viewBox="0, 0, 400,383.00132802124836"><g id="svgg"><path id="path0" d="M181.083 18.678 C 180.971 19.258,180.689 21.370,180.457 23.372 C 170.592 108.500,138.507 184.353,99.042 215.847 C 86.496 225.859,69.775 233.210,59.291 233.322 L 58.238 233.333 58.232 225.192 C 58.225 215.414,58.341 215.703,55.158 217.576 C 51.629 219.652,25.949 234.495,7.471 245.138 C -0.025 249.456,0.516 249.061,1.310 249.641 C 1.682 249.913,11.324 255.514,22.736 262.086 C 34.149 268.659,44.866 274.864,46.552 275.875 C 51.074 278.586,57.224 282.041,57.663 282.118 C 57.904 282.159,58.117 278.995,58.238 273.563 L 58.429 264.943 60.345 264.839 C 120.168 261.596,172.294 197.492,199.602 93.582 C 200.203 91.293,200.510 91.530,201.332 94.923 C 224.932 192.308,280.184 260.501,338.889 264.696 L 342.337 264.943 342.440 273.510 C 342.536 281.416,342.595 282.064,343.207 281.904 C 343.571 281.809,350.421 277.945,358.429 273.319 C 366.437 268.692,378.977 261.467,386.296 257.262 C 393.615 253.057,399.604 249.444,399.605 249.234 C 399.606 249.023,394.652 246.014,388.597 242.547 C 382.541 239.080,370.004 231.855,360.738 226.492 C 351.471 221.129,343.587 216.662,343.217 216.566 C 342.592 216.402,342.536 216.994,342.441 224.766 L 342.337 233.142 340.230 233.074 C 315.319 232.270,285.189 206.974,263.880 168.973 C 248.813 142.105,238.348 113.653,228.770 73.525 C 227.668 68.906,224.741 54.138,223.614 47.510 C 221.819 36.950,221.490 34.673,220.058 22.893 L 219.417 17.625 200.352 17.625 L 181.287 17.625 181.083 18.678 M199.881 100.287 C 199.791 100.445,199.604 101.207,199.464 101.980 C 198.504 107.307,190.563 133.053,186.604 143.678 L 184.676 148.851 184.675 233.799 C 184.674 317.392,184.663 318.753,183.933 319.144 C 183.491 319.380,180.011 319.540,175.313 319.540 C 170.338 319.540,167.433 319.681,167.433 319.922 C 167.433 320.132,170.858 326.209,175.045 333.427 C 179.231 340.646,184.642 350.000,187.069 354.215 C 197.268 371.925,199.916 376.409,200.236 376.513 C 200.553 376.617,204.195 370.441,218.019 346.360 C 221.103 340.987,225.811 332.830,228.480 328.235 C 231.149 323.639,233.333 319.803,233.333 319.710 C 233.333 319.617,229.727 319.540,225.319 319.540 C 220.911 319.540,217.031 319.436,216.698 319.308 C 216.148 319.097,216.092 311.248,216.092 234.268 L 216.092 149.461 214.337 144.750 C 210.145 133.492,204.495 115.367,201.491 103.544 C 200.658 100.264,200.304 99.547,199.881 100.287 " stroke="none" fill="#1c1c1c" fill-rule="evenodd"></path><path id="path1" d="M0.000 191.571 L 0.000 383.142 200.000 383.142 L 400.000 383.142 400.000 191.571 L 400.000 0.000 200.000 0.000 L 0.000 0.000 0.000 191.571 M220.058 22.893 C 221.490 34.673,221.819 36.950,223.614 47.510 C 224.741 54.138,227.668 68.906,228.770 73.525 C 238.348 113.653,248.813 142.105,263.880 168.973 C 285.189 206.974,315.319 232.270,340.230 233.074 L 342.337 233.142 342.441 224.766 C 342.536 216.994,342.592 216.402,343.217 216.566 C 343.587 216.662,351.471 221.129,360.738 226.492 C 370.004 231.855,382.541 239.080,388.597 242.547 C 394.652 246.014,399.606 249.023,399.605 249.234 C 399.604 249.444,393.615 253.057,386.296 257.262 C 378.977 261.467,366.437 268.692,358.429 273.319 C 350.421 277.945,343.571 281.809,343.207 281.904 C 342.595 282.064,342.536 281.416,342.440 273.510 L 342.337 264.943 338.889 264.696 C 280.184 260.501,224.932 192.308,201.332 94.923 C 200.510 91.530,200.203 91.293,199.602 93.582 C 172.294 197.492,120.168 261.596,60.345 264.839 L 58.429 264.943 58.238 273.563 C 58.117 278.995,57.904 282.159,57.663 282.118 C 57.224 282.041,51.074 278.586,46.552 275.875 C 44.866 274.864,34.149 268.659,22.736 262.086 C 11.324 255.514,1.682 249.913,1.310 249.641 C 0.516 249.061,-0.025 249.456,7.471 245.138 C 25.949 234.495,51.629 219.652,55.158 217.576 C 58.341 215.703,58.225 215.414,58.232 225.192 L 58.238 233.333 59.291 233.322 C 75.393 233.150,98.220 219.697,114.530 200.766 C 123.993 189.783,130.308 180.531,138.657 165.414 C 158.546 129.406,174.421 75.459,180.457 23.372 C 180.689 21.370,180.971 19.258,181.083 18.678 L 181.287 17.625 200.352 17.625 L 219.417 17.625 220.058 22.893 M201.491 103.544 C 204.495 115.367,210.145 133.492,214.337 144.750 L 216.092 149.461 216.092 234.268 C 216.092 311.248,216.148 319.097,216.698 319.308 C 217.031 319.436,220.911 319.540,225.319 319.540 C 229.727 319.540,233.333 319.617,233.333 319.710 C 233.333 319.803,231.149 323.639,228.480 328.235 C 225.811 332.830,221.103 340.987,218.019 346.360 C 204.195 370.441,200.553 376.617,200.236 376.513 C 199.916 376.409,197.268 371.925,187.069 354.215 C 184.642 350.000,179.231 340.646,175.045 333.427 C 170.858 326.209,167.433 320.132,167.433 319.922 C 167.433 319.681,170.338 319.540,175.313 319.540 C 180.011 319.540,183.491 319.380,183.933 319.144 C 184.663 318.753,184.674 317.392,184.675 233.799 L 184.676 148.851 186.604 143.678 C 190.563 133.053,198.504 107.307,199.464 101.980 C 200.005 98.979,200.411 99.292,201.491 103.544 " stroke="none" fill="#fbfbfb" fill-rule="evenodd"></path></g></svg>